<svg width="40" height="40" viewBox="0 0 40 40" fill="none" xmlns="http://www.w3.org/2000/svg">
<path d="M40 29.4103C19.0877 32.1096 4.16147 35.3516 3.94067 22.0442C3.94067 22.0442 4.39699 16.8879 10.8002 16.5632C10.8002 16.5632 11.0161 11.9836 15.9081 11.4651C18.5381 11.184 21.5263 13.8591 21.8501 16.6747C21.8501 16.6747 28.3221 15.4922 28.6017 21.7243C28.6999 23.8954 28.2043 27.5881 21.963 27.4282C21.963 27.4282 18.3516 26.9436 17.861 21.4287C16.8453 32.1047 32.4731 31.4844 32.6988 21.7873C32.797 17.5954 30.0787 13.2824 23.9551 14.0917C20.5989 5.75152 11.6638 6.23129 8.33707 13.9657C3.58248 13.9657 -0.0533805 17.5809 0.000593141 22.301C0.182141 37.4936 21.5901 32.914 40 29.4103Z" fill="white"/>
</svg>
