<svg width="40" height="40" viewBox="0 0 40 40" fill="none" xmlns="http://www.w3.org/2000/svg">
<g clip-path="url(#clip0_6_90)">
<path d="M0 0H40V40H0V0Z" fill="white"/>
<path d="M32.9733 31.0483C32.5483 29.4467 29.2217 29.0733 26.9467 27.3733C24.6467 25.8233 24.0983 22.0733 25.9983 19.9217C26.6483 19.1217 27.7217 18.5217 28.8483 18.2467L30.0233 18.0983C32.2983 18.0467 33.6967 18.6467 34.7467 19.8217C35.05 20.12 35.2733 20.4217 35.7233 21.1217C34.5217 21.87 34.5217 21.87 32.7983 22.9967C32.4217 22.1967 31.8217 21.6967 31.1717 21.4967C30.1717 21.1967 28.8967 21.52 28.6467 22.5967C28.5483 22.9217 28.5717 23.2217 28.7233 23.7717C29.1283 24.6967 30.4917 25.0967 31.7183 25.6717C35.2433 27.1017 36.4317 28.635 36.7233 30.46L36.6467 30.3483C36.9233 31.9233 36.5717 32.9483 36.5233 33.0983C35.2217 37.5483 27.9717 37.6983 25.0717 34.7717C24.4717 34.0717 24.0717 33.7233 23.7217 32.9233L26.7717 31.1717C27.5967 32.4217 28.345 33.0983 29.6967 33.3983C31.5233 33.6233 33.3733 32.9983 32.9733 31.0483ZM13.555 31.6267C13.5833 31.6267 13.6617 31.7783 13.7667 31.9533C14.155 32.6017 14.49 33.0517 15.15 33.3783C15.7933 33.58 17.21 33.7267 17.76 32.5783C18.095 31.9983 17.99 30.1133 17.99 28.06C17.99 24.825 18.005 21.615 18.005 18.385H21.7517L21.745 18.4783C21.745 21.9283 21.765 25.3533 21.745 28.7767C21.7533 30.9033 21.9333 32.8033 21.0833 34.3533C20.495 35.5533 19.37 36.3283 18.065 36.705C16.06 37.155 14.145 36.88 12.72 36.03C11.7633 35.455 11.0217 34.5517 10.5133 33.5017L13.555 31.6267Z" fill="black"/>
</g>
<defs>
<clipPath id="clip0_6_90">
<rect width="40" height="40" fill="white"/>
</clipPath>
</defs>
</svg>
