<svg width="40" height="40" viewBox="0 0 40 40" fill="none" xmlns="http://www.w3.org/2000/svg">
<g clip-path="url(#clip0_6_104)">
<path d="M13.5867 6.18501C15.085 4.29167 17.9067 3.35667 19.83 3.30834C25.2233 3.20501 27.4717 9.99667 27.645 12.6967L30.1417 13.4533C29.5667 5.17667 24.475 0.835007 19.6033 0.835007C15.035 0.833341 10.8167 4.19001 9.11667 9.11167C6.795 15.6733 8.31834 21.9817 11.165 27.03C10.9167 27.3583 10.7667 27.9367 10.8167 28.4917C10.865 30.0067 12.1383 31.2683 13.6633 31.2683H13.7633C14.1407 31.2575 14.512 31.1714 14.8556 31.015C15.1991 30.8585 15.5079 30.635 15.7638 30.3575C16.0197 30.08 16.2176 29.7542 16.3457 29.3991C16.4738 29.0441 16.5297 28.667 16.51 28.29C16.51 26.775 15.2117 25.5167 13.6883 25.5167H13.5867C13.4867 25.5167 13.3383 25.5167 13.2117 25.565C11.14 22.0317 10.265 18.245 10.5917 14.16C10.79 11.08 11.79 8.40501 13.5867 6.18501Z" fill="white"/>
<path d="M1.55334 34.83C3.22667 37.3533 6.64834 38.9667 10.3933 38.9667C11.3917 38.9667 12.4417 38.8933 13.465 38.64C19.9583 37.3783 24.8783 33.4417 27.7 27.6383L27.7233 27.5867C29.1717 27.46 30.295 26.1717 30.2217 24.6317C30.145 23.0917 28.8967 21.8567 27.375 21.8567H27.2733C25.7017 21.9083 24.4767 23.245 24.5267 24.8367C24.5767 25.6433 24.9033 26.3 25.35 26.7783C23.6033 30.2117 20.9817 32.7333 17.01 34.855C14.3383 36.2667 11.5167 36.7983 8.77 36.42C6.47334 36.0933 4.67667 35.055 3.57667 33.3917C1.93 30.8667 1.78 28.1433 3.15167 25.4183C4.15334 23.45 5.65 22.0117 6.65 21.3033C6.4 20.6483 6.1 19.5383 5.95 18.7067C-1.445 24.055 -0.69333 31.3717 1.55334 34.83Z" fill="white"/>
<path d="M39.1083 33.7167C40.605 30.6883 40.4817 25.5917 36.66 21.225L36.6367 21.275C32.7683 16.6817 27.0733 14.1583 20.5783 14.1583H19.7283C19.3067 13.225 18.3333 12.6433 17.2333 12.6433H17.1583C15.5867 12.6433 14.3617 14.0083 14.4133 15.5967C14.4633 17.11 15.7367 18.3733 17.26 18.3733H17.3833C17.9253 18.3502 18.4491 18.1712 18.892 17.8579C19.3348 17.5445 19.6779 17.1101 19.88 16.6067H20.805C24.6533 16.6067 28.2967 17.7417 31.62 19.9617C34.165 21.6533 35.99 23.8733 37.0133 26.5233C37.91 28.6933 37.8617 30.8133 36.9383 32.5817C35.515 35.3567 33.1167 36.8217 29.9467 36.8217C27.9483 36.8217 26.0017 36.19 25.0017 35.7367C24.4033 36.2383 23.4033 37.0717 22.6783 37.5783C24.875 38.585 27.0983 39.1667 29.245 39.1667C34.115 39.1667 37.7333 36.3933 39.1083 33.7167Z" fill="white"/>
</g>
<defs>
<clipPath id="clip0_6_104">
<rect width="40" height="40" fill="white"/>
</clipPath>
</defs>
</svg>
