<svg width="15" height="15" viewBox="0 0 15 15" fill="none" xmlns="http://www.w3.org/2000/svg">
<path d="M0 3.32223V2.9375C0 2.68886 0.0987721 2.4504 0.274587 2.27459C0.450403 2.09877 0.68886 2 0.9375 2H14.0625C14.3111 2 14.5496 2.09877 14.7254 2.27459C14.9012 2.4504 15 2.68886 15 2.9375V3.32223L7.5 8.00973L0 3.32223ZM7.74844 8.96012C7.67392 9.00663 7.58784 9.03128 7.5 9.03128C7.41216 9.03128 7.32608 9.00663 7.25156 8.96012L0 4.42777V12.3125C0 12.5611 0.0987721 12.7996 0.274587 12.9754C0.450403 13.1512 0.68886 13.25 0.9375 13.25H14.0625C14.3111 13.25 14.5496 13.1512 14.7254 12.9754C14.9012 12.7996 15 12.5611 15 12.3125V4.42777L7.74844 8.96012Z" fill="#7ABA78"/>
</svg>
