<svg width="45" height="45" viewBox="0 0 45 45" fill="none" xmlns="http://www.w3.org/2000/svg">
<path fill-rule="evenodd" clip-rule="evenodd" d="M8.77502 12.3817C9.95422 7.90254 11.8825 4.09335 14.3175 1.44502C9.10828 3.4875 4.84167 7.41493 2.35828 12.3817H8.77502ZM1.33417 14.8816C0.495789 17.2325 0 19.745 0 22.3816C0 25.0184 0.495789 27.5308 1.33417 29.8816H8.21747C7.76837 27.5092 7.5 25.0024 7.5 22.3816C7.5 19.7608 7.76837 17.2541 8.21838 14.8816H1.33417ZM8.77502 32.3816H2.35828C4.84167 37.3483 9.10828 41.2758 14.3175 43.3183C11.8825 40.6699 9.95496 36.8608 8.77502 32.3816ZM11.3517 32.3816C13.2542 39.0758 16.9717 43.9574 21.25 44.7633V32.3816H11.3517ZM10.7559 29.8816H21.25V14.8816H10.7559C10.275 17.2416 10 19.7642 10 22.3816C10 24.9991 10.275 27.5217 10.7559 29.8816ZM11.3517 12.3816H21.25V0C16.9717 0.805756 13.2542 5.6875 11.3517 12.3816ZM36.225 12.3816H42.6417C40.1583 7.41493 35.8917 3.4875 30.6825 1.44492C33.1175 4.09326 35.045 7.90244 36.225 12.3816ZM33.6483 12.3816C31.7458 5.6875 28.0283 0.805862 23.75 0V12.3816H33.6483ZM34.2441 14.8816H23.75V29.8816H34.2441C34.725 27.5217 35 24.9991 35 22.3816C35 19.7642 34.725 17.2416 34.2441 14.8816ZM23.75 32.3816V44.7633C28.0283 43.9575 31.7458 39.0758 33.6483 32.3816H23.75ZM36.225 32.3816C35.045 36.8607 33.1175 40.6691 30.6825 43.3183C35.8917 41.2758 40.1583 37.3483 42.6417 32.3816H36.225ZM37.5 22.3816C37.5 25.0024 37.2316 27.5092 36.7816 29.8816H43.6658C44.5042 27.5308 45 25.0184 45 22.3816C45 19.745 44.5042 17.2325 43.6667 14.8816H36.7825C37.2316 17.2541 37.5 19.7608 37.5 22.3816Z" fill="#7ABA78"/>
</svg>
