<svg width="40" height="40" viewBox="0 0 40 40" fill="none" xmlns="http://www.w3.org/2000/svg">
<g clip-path="url(#clip0_6_117)">
<path d="M20 40C31.045 40 40 31.045 40 20C40 8.955 31.045 0 20 0C8.955 0 0 8.955 0 20C0 31.045 8.955 40 20 40ZM10.685 11.265C13.2667 8.85 16.8583 6.99833 20.1733 5.82C25.7483 3.83833 31.64 5.00667 32.5433 8.56167L32.4217 8.45C33.2967 11.95 30.2717 16.1267 26.3983 17.625C22.9483 18.9733 20.0717 18.75 18.8983 18.375C17.5467 17.925 16.7717 17.05 16.5717 16.55C16.4967 16.35 16.3717 16.025 16.5717 15.925C16.6967 15.8483 16.7467 15.8733 17.095 16.2483C17.4217 16.6 18.6967 17.5483 21.1467 17.2733C27.5717 16.55 31.42 11.5733 30.1983 8.9C29.3483 7.025 24.4217 6.17333 18.2467 9.25C10.7217 13 10.2967 16.0983 10.2467 17.2733C10.0717 20.4983 14.2467 22.1983 16.4967 24.6233C16.57 24.6733 16.6217 24.7233 16.6717 24.7983C17.345 24.5233 18.2967 24.3983 19.7967 24.3717C23.445 24.3233 25.4967 26.7217 25.4217 28.8717C25.3467 30.5733 23.795 31.2733 23.52 31.3233C23.3217 31.3483 23.195 31.3483 23.17 31.1983C23.1467 31.0967 23.2217 31.0483 23.4717 30.8967C23.7233 30.7467 24.445 30.2217 24.595 29.3233C24.7467 28.4233 24.0467 26.2233 20.545 25.8233C19.295 25.6717 18.3217 25.7717 17.495 25.9967C18.0983 27.3217 18.2217 30.0217 16.8217 32.1233C15.3717 34.2717 12.6717 35.5983 10.0467 34.8717C9.19667 34.6483 7.89667 32.8967 9.02167 30.4467C10.0717 28.12 14.5533 25.8717 15.165 25.5717V25.5617C13.0883 23.7733 8.03833 21.3633 7.32667 17.6783C7.125 16.6333 7.61333 14.1333 10.685 11.265Z" fill="white"/>
<path d="M11.3383 32.935C12.035 33.3383 13.6583 32.8583 14.8217 31.5933C15.2033 31.1767 15.5133 30.7267 15.7467 30.2433C15.79 30.15 15.8367 30.0517 15.8767 29.95L15.985 29.65C16.285 28.7433 16.3167 27.7383 16.025 26.6633L15.845 26.765V26.77C15.845 26.77 13.7633 27.755 12.3117 29.285C10.9617 30.71 10.5883 32.4983 11.3383 32.935Z" fill="white"/>
</g>
<defs>
<clipPath id="clip0_6_117">
<rect width="40" height="40" fill="white"/>
</clipPath>
</defs>
</svg>
