<svg width="15" height="15" viewBox="0 0 15 15" fill="none" xmlns="http://www.w3.org/2000/svg">
<path d="M10.9303 4.9439C11.3903 4.4839 11.847 3.41057 9.9303 4.7139C8.13985 5.94613 6.33726 7.16064 4.5228 8.35724C4.2465 8.48217 3.9478 8.54997 3.64463 8.55656C3.34147 8.56315 3.0401 8.50839 2.75863 8.39557C1.60863 8.05057 0.266133 7.59057 0.266133 7.59057C0.266133 7.59057 -0.650534 7.01474 0.918633 6.4014C0.918633 6.4014 7.5528 3.6789 9.85363 2.71974C10.7353 2.3364 13.7261 1.10974 13.7261 1.10974C13.7261 1.10974 15.107 0.572235 14.992 1.8764C14.9536 2.41307 14.647 4.29307 14.3403 6.32474C13.8795 9.20057 13.3811 12.3456 13.3811 12.3456C13.3811 12.3456 13.3045 13.2272 12.6528 13.3806C11.9552 13.3688 11.2812 13.1261 10.7361 12.6906C10.5828 12.5756 7.8603 10.8497 6.8628 10.0064C6.76133 9.93767 6.6789 9.84438 6.62316 9.73523C6.56743 9.62607 6.54021 9.5046 6.54404 9.3821C6.54786 9.2596 6.58261 9.14006 6.64504 9.0346C6.70748 8.92913 6.79557 8.84117 6.90113 8.7789C8.26926 7.52717 9.61258 6.24859 10.9303 4.9439Z" fill="#7ABA78"/>
</svg>
