<svg width="40" height="40" viewBox="0 0 40 40" fill="none" xmlns="http://www.w3.org/2000/svg">
<g clip-path="url(#clip0_6_93)">
<path d="M0 0V40H40V0H0ZM23.2222 21.1111H18.0111V36.4H14.6778V21.1111H9.52222V18.2889H23.2222V21.1111ZM29.2111 36.6667C27.5118 36.6996 25.83 36.3183 24.3111 35.5556L25.0444 32.8222C26.3889 33.5502 27.8934 33.932 29.4222 33.9333C31.5333 33.9333 32.7556 32.9444 32.7556 31.4667C32.7556 29.9889 31.8444 29.2444 29.5444 28.4556C26.5556 27.4 24.6444 25.8 24.6444 23.2C24.6444 20.2333 27.1222 18 31.0556 18C32.554 17.9575 34.0417 18.2657 35.4 18.9L34.6111 21.5667C33.4917 20.9887 32.2487 20.6913 30.9889 20.7C28.8889 20.7 28 21.8111 28 22.9222C28 24.3111 29.0444 24.9667 31.4556 25.8889C34.6111 27.0889 36.1222 28.6667 36.1222 31.2667C36.0778 34.1556 33.8778 36.6667 29.2111 36.6667Z" fill="white"/>
</g>
<defs>
<clipPath id="clip0_6_93">
<rect width="40" height="40" fill="white"/>
</clipPath>
</defs>
</svg>
